<mxfile host="Electron" modified="2024-02-22T18:57:21.716Z" agent="Mozilla/5.0 (Macintosh; Intel Mac OS X 10_15_7) AppleWebKit/537.36 (KHTML, like Gecko) draw.io/23.1.5 Chrome/120.0.6099.109 Electron/28.1.0 Safari/537.36" etag="NxFfZAdSVsXnAyPrCmCG" version="23.1.5" type="device">
  <diagram name="Page-1" id="lS4-UMWoGOBkaAkWKf9Y">
    <mxGraphModel dx="1114" dy="807" grid="1" gridSize="10" guides="1" tooltips="1" connect="1" arrows="1" fold="1" page="1" pageScale="1" pageWidth="827" pageHeight="1169" math="0" shadow="0">
      <root>
        <mxCell id="0" />
        <mxCell id="1" parent="0" />
        <mxCell id="47rJ_QTVQbzoOPjdUdao-1" value="&amp;nbsp; &amp;nbsp; Harvesting" style="shape=step;perimeter=stepPerimeter;whiteSpace=wrap;html=1;fixedSize=1;align=center;fontSize=12;" parent="1" vertex="1">
          <mxGeometry x="119" y="110" width="90" height="70" as="geometry" />
        </mxCell>
        <mxCell id="47rJ_QTVQbzoOPjdUdao-5" value="&amp;nbsp; &amp;nbsp; Bottling" style="shape=step;perimeter=stepPerimeter;whiteSpace=wrap;html=1;fixedSize=1;fontSize=12;" parent="1" vertex="1">
          <mxGeometry x="409" y="110" width="80" height="70" as="geometry" />
        </mxCell>
        <mxCell id="47rJ_QTVQbzoOPjdUdao-14" value="&amp;nbsp; &amp;nbsp; &amp;nbsp;Distribution" style="shape=step;perimeter=stepPerimeter;whiteSpace=wrap;html=1;fixedSize=1;fontSize=12;" parent="1" vertex="1">
          <mxGeometry x="539" y="110" width="94.71" height="70" as="geometry" />
        </mxCell>
        <mxCell id="47rJ_QTVQbzoOPjdUdao-15" value="&amp;nbsp; &amp;nbsp;Selling" style="shape=step;perimeter=stepPerimeter;whiteSpace=wrap;html=1;fixedSize=1;fontSize=12;" parent="1" vertex="1">
          <mxGeometry x="684.29" y="110" width="70" height="70" as="geometry" />
        </mxCell>
        <mxCell id="yK4A0Zebumvh4gKX7Or6-3" value="&amp;nbsp; &amp;nbsp; &amp;nbsp;Processing" style="shape=step;perimeter=stepPerimeter;whiteSpace=wrap;html=1;fixedSize=1;align=center;fontSize=12;" vertex="1" parent="1">
          <mxGeometry x="264.28999999999996" y="110" width="90" height="70" as="geometry" />
        </mxCell>
        <mxCell id="yK4A0Zebumvh4gKX7Or6-13" value="" style="shape=image;verticalLabelPosition=bottom;labelBackgroundColor=default;verticalAlign=top;aspect=fixed;imageAspect=0;image=https://static.vecteezy.com/system/resources/thumbnails/004/581/260/small/truck-delivery-icon-transportation-automotive-shipping-moving-and-freight-illustration-design-free-vector.jpg;clipPath=inset(25% 11.5% 25% 13%);" vertex="1" parent="1">
          <mxGeometry x="218.99999999999997" y="130" width="45.29" height="30" as="geometry" />
        </mxCell>
        <mxCell id="yK4A0Zebumvh4gKX7Or6-14" value="" style="shape=image;verticalLabelPosition=bottom;labelBackgroundColor=default;verticalAlign=top;aspect=fixed;imageAspect=0;image=https://static.vecteezy.com/system/resources/thumbnails/004/581/260/small/truck-delivery-icon-transportation-automotive-shipping-moving-and-freight-illustration-design-free-vector.jpg;clipPath=inset(25% 11.5% 25% 13%);" vertex="1" parent="1">
          <mxGeometry x="363.71" y="130" width="45.29" height="30" as="geometry" />
        </mxCell>
        <mxCell id="yK4A0Zebumvh4gKX7Or6-15" value="" style="shape=image;verticalLabelPosition=bottom;labelBackgroundColor=default;verticalAlign=top;aspect=fixed;imageAspect=0;image=https://static.vecteezy.com/system/resources/thumbnails/004/581/260/small/truck-delivery-icon-transportation-automotive-shipping-moving-and-freight-illustration-design-free-vector.jpg;clipPath=inset(25% 11.5% 25% 13%);" vertex="1" parent="1">
          <mxGeometry x="499" y="130" width="45.29" height="30" as="geometry" />
        </mxCell>
        <mxCell id="yK4A0Zebumvh4gKX7Or6-16" value="" style="shape=image;verticalLabelPosition=bottom;labelBackgroundColor=default;verticalAlign=top;aspect=fixed;imageAspect=0;image=https://static.vecteezy.com/system/resources/thumbnails/004/581/260/small/truck-delivery-icon-transportation-automotive-shipping-moving-and-freight-illustration-design-free-vector.jpg;clipPath=inset(25% 11.5% 25% 13%);" vertex="1" parent="1">
          <mxGeometry x="639" y="130" width="45.29" height="30" as="geometry" />
        </mxCell>
        <mxCell id="yK4A0Zebumvh4gKX7Or6-17" value="Actor" style="shape=umlActor;verticalLabelPosition=bottom;verticalAlign=top;html=1;outlineConnect=0;" vertex="1" parent="1">
          <mxGeometry x="759" y="115" width="30" height="60" as="geometry" />
        </mxCell>
        <mxCell id="yK4A0Zebumvh4gKX7Or6-22" value="" style="shape=image;verticalLabelPosition=bottom;labelBackgroundColor=default;verticalAlign=top;aspect=fixed;imageAspect=0;image=https://as2.ftcdn.net/v2/jpg/02/48/99/15/1000_F_248991536_kLNd3vJRMT4f2bS80byfqRe8FmfeKCIu.jpg;clipPath=inset(19.67% 23.67% 14% 23.33%);" vertex="1" parent="1">
          <mxGeometry x="39" y="102.5" width="67.92" height="85" as="geometry" />
        </mxCell>
      </root>
    </mxGraphModel>
  </diagram>
</mxfile>
